<svg xmlns="http://www.w3.org/2000/svg" xmlns:xlink="http://www.w3.org/1999/xlink" width="52" zoomAndPan="magnify" viewBox="0 0 39 38.999999" height="52" preserveAspectRatio="xMidYMid meet" version="1.0"><defs><clipPath id="29f2f7f1fb"><path d="M 10 9 L 34.160156 9 L 34.160156 28 L 10 28 Z M 10 9 " clip-rule="nonzero"/></clipPath><clipPath id="ee78ef4a9a"><path d="M 4.910156 6.039062 L 32 6.039062 L 32 33.039062 L 4.910156 33.039062 Z M 4.910156 6.039062 " clip-rule="nonzero"/></clipPath></defs><g clip-path="url(#29f2f7f1fb)"><path fill="#ffffff" d="M 15.042969 23.921875 L 18.003906 27.296875 L 18.109375 27.414062 L 34.089844 13.363281 L 31.023438 9.871094 L 18.480469 20.898438 L 14.105469 15.917969 L 10.664062 18.941406 Z M 15.042969 23.921875 " fill-opacity="1" fill-rule="nonzero"/></g><g clip-path="url(#ee78ef4a9a)"><path fill="#ffffff" d="M 28.585938 29.664062 L 8.347656 29.664062 L 8.347656 9.414062 L 28.585938 9.414062 L 28.585938 9.992188 L 31.382812 7.539062 C 30.777344 6.632812 29.75 6.039062 28.585938 6.039062 L 8.347656 6.039062 C 6.484375 6.039062 4.972656 7.550781 4.972656 9.414062 L 4.972656 29.664062 C 4.972656 31.527344 6.484375 33.039062 8.347656 33.039062 L 28.585938 33.039062 C 30.445312 33.039062 31.957031 31.527344 31.957031 29.664062 L 31.957031 17.234375 L 28.585938 20.199219 Z M 28.585938 29.664062 " fill-opacity="1" fill-rule="nonzero"/></g></svg>