<svg xmlns="http://www.w3.org/2000/svg" xmlns:xlink="http://www.w3.org/1999/xlink" width="52" zoomAndPan="magnify" viewBox="0 0 39 38.999999" height="52" preserveAspectRatio="xMidYMid meet" version="1.0"><defs><clipPath id="222d82b053"><path d="M 17 6.5625 L 32.8125 6.5625 L 32.8125 22 L 17 22 Z M 17 6.5625 " clip-rule="nonzero"/></clipPath><clipPath id="b6c06ed0c5"><path d="M 6.5625 10 L 30 10 L 30 32.8125 L 6.5625 32.8125 Z M 6.5625 10 " clip-rule="nonzero"/></clipPath></defs><g clip-path="url(#222d82b053)"><path fill="#ffffff" d="M 29.550781 6.933594 C 29.316406 6.699219 28.984375 6.5625 28.65625 6.5625 C 28.316406 6.5625 27.996094 6.699219 27.757812 6.933594 L 18.042969 16.640625 C 17.824219 16.859375 17.699219 17.15625 17.679688 17.46875 L 17.511719 20.527344 C 17.496094 20.882812 17.628906 21.238281 17.882812 21.492188 C 18.121094 21.726562 18.441406 21.863281 18.78125 21.863281 L 18.847656 21.863281 L 21.90625 21.695312 C 22.210938 21.675781 22.507812 21.542969 22.726562 21.320312 L 32.441406 11.625 C 32.675781 11.378906 32.8125 11.058594 32.8125 10.730469 C 32.8125 10.390625 32.675781 10.066406 32.441406 9.824219 Z M 29.550781 6.933594 " fill-opacity="1" fill-rule="nonzero"/></g><g clip-path="url(#b6c06ed0c5)"><path fill="#ffffff" d="M 10.851562 32.8125 L 24.9375 32.8125 C 27.300781 32.8125 29.226562 30.886719 29.226562 28.523438 L 29.226562 19.839844 C 29.226562 19.140625 28.65625 18.570312 27.957031 18.570312 C 27.253906 18.570312 26.683594 19.140625 26.683594 19.839844 L 26.683594 28.523438 C 26.683594 29.488281 25.902344 30.273438 24.9375 30.273438 L 10.851562 30.273438 C 9.886719 30.273438 9.101562 29.488281 9.101562 28.523438 L 9.101562 14.4375 C 9.101562 13.472656 9.886719 12.691406 10.851562 12.691406 L 19.535156 12.691406 C 20.234375 12.691406 20.804688 12.121094 20.804688 11.417969 C 20.804688 10.71875 20.234375 10.148438 19.535156 10.148438 L 10.851562 10.148438 C 8.484375 10.148438 6.5625 12.074219 6.5625 14.4375 L 6.5625 28.523438 C 6.5625 30.886719 8.484375 32.8125 10.851562 32.8125 Z M 10.851562 32.8125 " fill-opacity="1" fill-rule="nonzero"/></g></svg>