<svg xmlns="http://www.w3.org/2000/svg" xmlns:xlink="http://www.w3.org/1999/xlink" width="52" zoomAndPan="magnify" viewBox="0 0 39 38.999999" height="52" preserveAspectRatio="xMidYMid meet" version="1.0"><defs><clipPath id="5ea38685b2"><path d="M 7.617188 3.898438 L 31.617188 3.898438 L 31.617188 35.398438 L 7.617188 35.398438 Z M 7.617188 3.898438 " clip-rule="nonzero"/></clipPath></defs><g clip-path="url(#5ea38685b2)"><path fill="#ffffff" d="M 29.652344 7.886719 L 24.113281 7.886719 C 23.757812 5.648438 21.875 3.917969 19.558594 3.917969 C 17.238281 3.917969 15.316406 5.648438 15 7.886719 L 9.539062 7.886719 C 8.480469 7.886719 7.617188 8.75 7.617188 9.8125 L 7.617188 11.773438 C 7.617188 12.757812 8.324219 13.542969 9.265625 13.660156 L 9.265625 32.828125 C 9.265625 34.242188 10.40625 35.378906 11.820312 35.378906 L 27.414062 35.378906 C 28.828125 35.378906 29.964844 34.242188 29.964844 32.828125 L 29.964844 13.699219 C 30.910156 13.542969 31.617188 12.757812 31.617188 11.8125 L 31.617188 9.851562 C 31.578125 8.75 30.710938 7.886719 29.652344 7.886719 Z M 19.558594 5.375 C 21.089844 5.375 22.34375 6.433594 22.621094 7.886719 L 16.453125 7.886719 C 16.769531 6.472656 18.023438 5.375 19.558594 5.375 Z M 28.472656 32.867188 C 28.472656 33.457031 28 33.964844 27.375 33.964844 L 11.78125 33.964844 C 11.191406 33.964844 10.679688 33.496094 10.679688 32.867188 L 10.679688 13.738281 L 28.433594 13.738281 L 28.433594 32.867188 Z M 30.121094 11.773438 C 30.121094 12.050781 29.925781 12.246094 29.652344 12.246094 L 9.539062 12.246094 C 9.265625 12.246094 9.070312 12.050781 9.070312 11.773438 L 9.070312 9.8125 C 9.070312 9.535156 9.265625 9.339844 9.539062 9.339844 L 29.613281 9.339844 C 29.886719 9.339844 30.082031 9.535156 30.082031 9.8125 L 30.082031 11.773438 Z M 13.941406 30.195312 L 13.941406 17.785156 C 13.941406 17.390625 14.253906 17.078125 14.648438 17.078125 C 15.039062 17.078125 15.355469 17.390625 15.355469 17.785156 L 15.355469 30.195312 C 15.355469 30.589844 15.039062 30.902344 14.648438 30.902344 C 14.253906 30.941406 13.941406 30.589844 13.941406 30.195312 Z M 18.929688 30.195312 L 18.929688 17.785156 C 18.929688 17.390625 19.242188 17.078125 19.636719 17.078125 C 20.027344 17.078125 20.34375 17.390625 20.34375 17.785156 L 20.34375 30.195312 C 20.34375 30.589844 20.027344 30.902344 19.636719 30.902344 C 19.242188 30.941406 18.929688 30.589844 18.929688 30.195312 Z M 23.917969 30.195312 L 23.917969 17.785156 C 23.917969 17.390625 24.230469 17.078125 24.625 17.078125 C 25.015625 17.078125 25.332031 17.390625 25.332031 17.785156 L 25.332031 30.195312 C 25.332031 30.589844 25.015625 30.902344 24.625 30.902344 C 24.269531 30.941406 23.917969 30.589844 23.917969 30.195312 Z M 23.917969 30.195312 " fill-opacity="1" fill-rule="nonzero"/></g></svg>